# xmcd
#
# Track frame offsets: 
#        150
#        13467
#        25874
#        42989
#        62628
#        76500
#        94300
#        106177
#        129017
#        148850
#        162185
#        180055
#        196887
#
# Disc length: 2791 seconds
#
# Revision: 0
# Processed by: cddbd v1.5.2PL0 Copyright (c) Steve Scherf et al.
# Submitted via: ExactAudioCopyFreeDBPlugin 1.0
#
DISCID=9a0ae50d
DTITLE=Joe Filisko and Eric Noden - Destination Unknown
DYEAR=2018
DGENRE=Blues
TTITLE0=Anxious Blues
TTITLE1=Shut It Down
TTITLE2=Louisiana Song
TTITLE3=Path You Choose
TTITLE4=Beginning Of The End
TTITLE5=Black Cloud
TTITLE6=Destination Unknown
TTITLE7=As We Are Now
TTITLE8=My Kitchen
TTITLE9=Four Letter 'F' Word
TTITLE10=My Jesus
TTITLE11=Can't Take The Edge
TTITLE12=Time Is For You
EXTD=
EXTT0=
EXTT1=
EXTT2=
EXTT3=
EXTT4=
EXTT5=
EXTT6=
EXTT7=
EXTT8=
EXTT9=
EXTT10=
EXTT11=
EXTT12=
PLAYORDER=
